<?xml version="1.0" encoding="utf-8"?>
<!-- Generator: Adobe Illustrator 21.0.0, SVG Export Plug-In . SVG Version: 6.00 Build 0)  -->
<svg version="1.1" id="Layer_1" xmlns="http://www.w3.org/2000/svg" xmlns:xlink="http://www.w3.org/1999/xlink" x="0px" y="0px"
	 width="24px" height="24px" viewBox="0 0 24 24" enable-background="new 0 0 24 24" xml:space="preserve">
<g>
	<path d="M12,0C5.4,0,0,5.4,0,12s5.4,12,12,12s12-5.4,12-12S18.6,0,12,0z M12.1,20.1c-0.8,0-1.6-0.1-2.4-0.4
		c-1.9-0.6-3.5-1.8-4.4-3.5C5.2,16,5.1,15.8,5,15.6c0-0.1-0.1-0.1-0.1-0.1l0,0c0-0.1-0.1-0.2-0.1-0.3l0,0c0,0,0-0.1-0.1-0.1
		c-0.1-0.2-0.2-0.5-0.2-0.7s-0.1-0.3-0.1-0.5l0,0c0-0.1,0-0.3-0.1-0.4c0-0.2,0-0.4,0-0.7c0-0.1,0-0.2,0-0.3c0-0.3,0-0.5,0-0.8l0,0
		c0-0.2,0.1-0.5,0.1-0.7v-0.1c0-0.2,0.1-0.4,0.1-0.6v-0.1C4.6,10,4.6,9.8,4.7,9.7c0,0,0-0.1,0.1-0.1C4.9,9.4,4.9,9.3,5,9.1
		C5,9.1,5,9,5.1,9c0.1-0.1,0.2-0.3,0.2-0.4l0,0C5.5,8.3,5.7,8,5.9,7.7l0,0l0,0c0.2-0.2,0.3-0.4,0.5-0.5c0.1,0,0.1-0.1,0.1-0.1
		C6.6,7,6.8,6.8,6.9,6.7C7,6.7,7,6.6,7.1,6.6c0.1-0.1,0.2-0.1,0.3-0.2l0.1-0.1c0.1-0.1,0.2-0.2,0.3-0.2l0,0l0,0C7.9,6,8,6,8.1,5.9
		c0.8-0.4,1.3-0.6,2.2-1.3l0.1-0.1c0.3-0.2,0.5-0.5,0.6-1l0,0c0-0.1,0.1-0.2,0.1-0.4l0,0c0-0.1,0.1-0.3,0.1-0.5l0,0l0,0
		c0.6,0.7,1.4,1.6,1.9,2l0.1,0.1c0.6,0.4,1.1,0.6,1.7,0.9H15c0.2,0.1,0.4,0.2,0.6,0.4l0,0c0.1,0,0.2,0.1,0.3,0.2l0,0l0,0
		c0.1,0,0.2,0.1,0.2,0.2c0.2,0.2,0.5,0.4,0.8,0.6l0,0c0.1,0.1,0.2,0.2,0.3,0.3c0.1,0.1,0.2,0.2,0.3,0.3C17.7,7.8,17.9,8,18,8.3
		c0.8,1.1,1.5,2.6,1.5,4.7C19.8,17.1,16.2,20.1,12.1,20.1z"/>
	<path d="M11.3,5.1c0-0.2-0.2-0.2-0.2-0.3c0,0,0-0.1,0.2-0.2c0.3-0.2,0.4-0.6,0.4-0.8c0-0.2,0-0.5-0.2-1.2c0,0,0,0,0-0.1v0.1
		c-0.2,1-0.5,1.4-0.9,1.7c-0.1,0-0.1,0.1-0.2,0.1C9.9,4.8,9.5,5,9.1,5.2l0,0c0,0-0.1,0-0.1,0.1C8.9,5.4,8.7,5.4,8.6,5.5
		C8.3,5.7,7.7,6,7.2,6.4L7.1,6.5C7,6.6,6.9,6.7,6.8,6.7C6.6,6.9,6.4,7.1,6.2,7.3C6,7.6,5.8,7.9,5.6,8.2C5.5,8.5,5.5,8.6,5.5,8.8
		C5.6,9,6.1,9.1,7.1,8.6s2.3-1.3,3.2-2.2C11.2,5.7,11.3,5.3,11.3,5.1z"/>
	<path d="M13.4,17.2c0.3-0.2,0.5-0.4,1.1-0.4s0.7,0.2,0.8,0.4c0.1,0.2,0.1,0.3,0.3,0.2c0.1-0.1,0.2-0.2,0.1-0.3
		c-0.1-0.2-0.2-0.5-0.4-0.6c-0.2-0.1-0.5-0.2-0.8-0.2s-0.4,0-0.7,0.1c-0.3,0.1-0.6,0.4-0.8,0.6c-0.2,0.2-0.2,0.3-0.1,0.4
		C13,17.5,13.1,17.5,13.4,17.2z"/>
	<path d="M15.8,18.2c-0.3,0.3-1.1,0.6-2.2,0.6s-1.6-0.2-2-0.5c-0.1,0,0,0-0.1,0s-0.2,0.1-0.3,0.1c-0.1,0.1-0.1,0.2,0,0.4
		c0.8,0.7,2,0.6,2.9,0.5s1.7-0.6,1.8-0.7c0.1-0.1,0.1-0.2,0.1-0.3C16,18.2,16,18.1,15.8,18.2z"/>
	<path d="M14.8,14.5c-1,0-2.4-2-4.4-2c-1.6,0-2.8,1.3-2.8,2.6c0,0.8,0.2,1.3,0.8,1.7c0.3,0.2,0.7,0.4,1.7,0.4c1.7,0,3.9-2.1,4.9-2.1
		c0.8,0,2,2,2.6,2c0.5,0,0.7-0.2,1.2-0.8c0.4-0.6,0.6-1.6,0.6-2.1s-0.2-1.4-1.1-1.4C17.4,12.8,15.7,14.5,14.8,14.5z"/>
</g>
</svg>
